<svg width="24" height="24" viewBox="0 0 24 24" fill="none" xmlns="http://www.w3.org/2000/svg">
<g id="instagram" clip-path="url(#clip0_168_208)">
<path id="Vector" d="M14.2968 11.9978C14.2968 13.2664 13.2684 14.2947 11.9999 14.2947C10.7313 14.2947 9.703 13.2664 9.703 11.9978C9.703 10.7292 10.7313 9.70093 11.9999 9.70093C13.2684 9.70093 14.2968 10.7292 14.2968 11.9978Z" fill="#F180A9"/>
<path id="Vector_2" d="M17.371 7.9328C17.2606 7.63361 17.0844 7.36279 16.8555 7.1405C16.6332 6.91162 16.3626 6.73547 16.0632 6.62506C15.8204 6.53076 15.4557 6.41852 14.7839 6.38794C14.0571 6.3548 13.8392 6.34766 11.9994 6.34766C10.1594 6.34766 9.94147 6.35461 9.21491 6.38776C8.54309 6.41852 8.17816 6.53076 7.93555 6.62506C7.63617 6.73547 7.36536 6.91162 7.14325 7.1405C6.91437 7.36279 6.73822 7.63342 6.62762 7.9328C6.53333 8.1756 6.42108 8.54053 6.3905 9.21234C6.35736 9.9389 6.35022 10.1568 6.35022 11.9968C6.35022 13.8367 6.35736 14.0546 6.3905 14.7813C6.42108 15.4531 6.53333 15.8179 6.62762 16.0607C6.73822 16.36 6.91418 16.6307 7.14307 16.853C7.36536 17.0818 7.63599 17.258 7.93536 17.3684C8.17816 17.4629 8.54309 17.5751 9.21491 17.6057C9.94147 17.6389 10.1592 17.6458 11.9992 17.6458C13.8394 17.6458 14.0573 17.6389 14.7837 17.6057C15.4555 17.5751 15.8204 17.4629 16.0632 17.3684C16.6642 17.1366 17.1392 16.6616 17.371 16.0607C17.4653 15.8179 17.5775 15.4531 17.6083 14.7813C17.6414 14.0546 17.6484 13.8367 17.6484 11.9968C17.6484 10.1568 17.6414 9.9389 17.6083 9.21234C17.5777 8.54053 17.4655 8.1756 17.371 7.9328ZM11.9994 15.535C10.0451 15.535 8.46088 13.9509 8.46088 11.9966C8.46088 10.0424 10.0451 8.45831 11.9994 8.45831C13.9535 8.45831 15.5377 10.0424 15.5377 11.9966C15.5377 13.9509 13.9535 15.535 11.9994 15.535ZM15.6776 9.14532C15.2209 9.14532 14.8507 8.77509 14.8507 8.31842C14.8507 7.86176 15.2209 7.49152 15.6776 7.49152C16.1343 7.49152 16.5045 7.86176 16.5045 8.31842C16.5043 8.77509 16.1343 9.14532 15.6776 9.14532Z" fill="#F180A9"/>
<path id="Vector_3" d="M12 0C5.3736 0 0 5.3736 0 12C0 18.6264 5.3736 24 12 24C18.6264 24 24 18.6264 24 12C24 5.3736 18.6264 0 12 0ZM18.8491 14.8409C18.8157 15.5744 18.6991 16.0752 18.5288 16.5135C18.1708 17.4391 17.4391 18.1708 16.5135 18.5288C16.0754 18.6991 15.5744 18.8156 14.8411 18.8491C14.1063 18.8826 13.8715 18.8906 12.0002 18.8906C10.1287 18.8906 9.8941 18.8826 9.15912 18.8491C8.42578 18.8156 7.9248 18.6991 7.48663 18.5288C7.02667 18.3558 6.61029 18.0846 6.26605 17.7339C5.91559 17.3899 5.64441 16.9733 5.47137 16.5135C5.30109 16.0754 5.18445 15.5744 5.15112 14.8411C5.11725 14.1061 5.10938 13.8713 5.10938 12C5.10938 10.1287 5.11725 9.89392 5.15094 9.15912C5.18427 8.4256 5.30072 7.9248 5.47101 7.48645C5.64404 7.02667 5.91541 6.61011 6.26605 6.26605C6.61011 5.91541 7.02667 5.64423 7.48645 5.47119C7.9248 5.3009 8.4256 5.18445 9.15912 5.15094C9.89392 5.11743 10.1287 5.10938 12 5.10938C13.8713 5.10938 14.1061 5.11743 14.8409 5.15112C15.5744 5.18445 16.0752 5.3009 16.5135 5.47101C16.9733 5.64404 17.3899 5.91541 17.7341 6.26605C18.0846 6.61029 18.356 7.02667 18.5288 7.48645C18.6993 7.9248 18.8157 8.4256 18.8492 9.15912C18.8828 9.89392 18.8906 10.1287 18.8906 12C18.8906 13.8713 18.8828 14.1061 18.8491 14.8409Z" fill="#F180A9"/>
</g>
<defs>
<clipPath id="clip0_168_208">
<rect width="24" height="24" fill="white"/>
</clipPath>
</defs>
</svg>
