<svg width="16" height="16" viewBox="0 0 16 16" fill="#fff" xmlns="http://www.w3.org/2000/svg">
<g id="Left Icon">
<path id="Vector" d="M13.7668 12.66L13.7668 12.6678C13.7664 12.8306 13.7319 12.9915 13.6656 13.1402C13.5995 13.2886 13.5031 13.4214 13.3827 13.5304C13.255 13.6465 13.1031 13.7328 12.938 13.7831C12.7741 13.8331 12.6012 13.8463 12.4316 13.8219C9.83651 13.4822 7.42486 12.2991 5.56778 10.4547L5.56656 10.4535C3.70785 8.59482 2.51448 6.17471 2.17151 3.56864C2.14707 3.399 2.16031 3.22604 2.2103 3.06207C2.26074 2.89661 2.34735 2.74444 2.46384 2.61657L2.83345 2.95331M13.7668 12.66L3.33345 2.73331M13.7668 12.66L13.7666 12.6521L13.7069 10.6036M13.7668 12.66L13.7069 10.6036M2.83345 2.95331L2.46225 2.61833C2.57265 2.496 2.7077 2.39845 2.85851 2.33209C3.00867 2.26602 3.17106 2.23237 3.33509 2.23331M2.83345 2.95331C2.89653 2.88341 2.9737 2.82767 3.05988 2.78975L5.92011 10.1C4.13843 8.31829 2.9948 5.99822 2.66678 3.49998C2.6523 3.4022 2.65974 3.30243 2.68856 3.20788C2.71739 3.11333 2.76688 3.02638 2.83345 2.95331ZM3.33509 2.23331C3.33581 2.23332 3.33653 2.23332 3.33725 2.23333L3.33345 2.73331M3.33509 2.23331H3.33345V2.73331M3.33509 2.23331H5.32819M3.33345 2.73331H5.33345M5.32819 2.23331C5.32587 2.23336 5.32355 2.23341 5.32123 2.23346L5.33345 2.73331M5.32819 2.23331C5.59545 2.22837 5.85639 2.31537 6.06727 2.47986C6.27999 2.64578 6.42863 2.88028 6.4879 3.14346L6.50011 3.19771V3.25331C6.50011 3.32586 6.51547 3.38828 6.54248 3.498C6.55525 3.5499 6.57062 3.61238 6.58821 3.69151L6.58837 3.69226C6.66017 4.01769 6.75568 4.33743 6.87413 4.64893L7.03864 5.08154L6.61999 5.27891L5.68666 5.71891L5.68205 5.72108L5.68204 5.72106C5.64194 5.73947 5.61077 5.77303 5.59538 5.81439L5.59246 5.82224L5.58927 5.82998C5.57362 5.86809 5.57267 5.91056 5.58642 5.9492M5.32819 2.23331H5.33345V2.73331M5.33345 2.73331L5.58642 5.9492M5.58642 5.9492C5.58422 5.94451 5.58203 5.93982 5.57984 5.93513L5.12678 6.14665M5.58642 5.9492L5.12678 5.63998C5.0601 5.80229 5.0601 5.98434 5.12678 6.14665M5.58642 5.9492C6.49499 7.88678 8.05332 9.44511 9.9909 10.3537M5.58642 5.9492L10.3001 10.8133C10.4655 10.7517 10.5998 10.6271 10.6734 10.4666M5.58642 5.9492C5.58731 5.9517 5.58826 5.95418 5.58927 5.95665L5.12678 6.14665M5.58642 5.9492L5.12678 6.14665M9.9909 10.3537C9.9884 10.3528 9.98591 10.3518 9.98345 10.3508L9.79345 10.8133L10.005 10.3603C10.0003 10.3581 9.99558 10.3559 9.9909 10.3537ZM9.9909 10.3537C10.0295 10.3674 10.072 10.3665 10.1101 10.3508L10.1179 10.3476L10.1257 10.3447C10.1667 10.3295 10.2 10.2988 10.2185 10.2592M10.2185 10.2592L10.2175 10.2615L10.6734 10.4666M10.2185 10.2592L10.6375 9.32813L10.8282 8.90438L11.2647 9.06357C11.5879 9.1814 11.9185 9.27766 12.2544 9.3517L12.2592 9.35276L12.2592 9.35278C12.4163 9.38903 12.5893 9.42009 12.7601 9.44538L12.7785 9.44811L12.7966 9.4522C13.0598 9.51147 13.2943 9.66011 13.4602 9.87282C13.623 10.0815 13.7099 10.3393 13.7069 10.6036M10.2185 10.2592C10.2187 10.2588 10.2189 10.2584 10.219 10.258L10.6734 10.4666M10.6734 10.4666L13.7069 10.6036M7.19999 5.16079C7.12381 5.34971 6.98111 5.50411 6.79894 5.59494L6.49914 5.7318L6.00257 5.9585L6.27186 6.43331C6.65997 7.11763 7.13352 7.74982 7.68112 8.31468L7.68652 8.32024L7.69209 8.32564C8.25694 8.87324 8.88913 9.34679 9.57345 9.7349L10.0398 9.99941L10.2712 9.51571L10.4168 9.21132C10.5073 9.02748 10.6625 8.88344 10.8526 8.80677C11.0428 8.73011 11.2544 8.72622 11.4472 8.7958C11.7525 8.91013 12.0653 9.00322 12.3835 9.07441C12.3984 9.0778 12.417 9.08245 12.4387 9.08786C12.5415 9.11346 12.7131 9.15623 12.8806 9.16503C13.2047 9.23745 13.4961 9.41551 13.7084 9.67176C13.9285 9.93731 14.0503 10.2706 14.0534 10.6154V12.6133V12.614C14.0537 12.8253 14.0093 13.0344 13.9232 13.2274C13.8371 13.4202 13.7113 13.5927 13.5539 13.7335C13.2787 13.9787 12.9228 14.1139 12.5542 14.1133L12.5347 14.1133L12.5154 14.1148C12.4583 14.1191 12.401 14.1194 12.3439 14.1156C9.68391 13.765 7.21325 12.5483 5.31373 10.6532C3.41512 8.7502 2.19736 6.27404 1.84924 3.60856L1.84925 3.60856L1.84883 3.60549C1.81946 3.39098 1.83687 3.17265 1.89988 2.96551C1.96281 2.7586 2.06974 2.56776 2.21332 2.40605C2.35414 2.24878 2.52658 2.123 2.71935 2.03694C2.91237 1.95077 3.12142 1.90637 3.33279 1.90665H3.33345H5.34012V1.9067L5.34738 1.90659C5.70473 1.9014 6.05219 2.02396 6.32719 2.25221L6.64653 1.86747L6.32719 2.25221C6.60015 2.47876 6.78391 2.79465 6.846 3.14372C6.86749 3.29952 6.89615 3.46392 6.93246 3.62372C7.00445 3.94331 7.09737 4.25782 7.2106 4.56523C7.28055 4.75826 7.27678 4.97034 7.19999 5.16079ZM8.98011 2.16665H8.9589L8.93777 2.16844C8.89309 2.17224 8.84873 2.15813 8.81445 2.12923C8.78017 2.10032 8.75878 2.05898 8.75498 2.0143C8.75119 1.96962 8.76529 1.92526 8.7942 1.89098C8.82004 1.86034 8.85582 1.84 8.89504 1.83331H8.89561H8.89651H8.89741H8.89832H8.89922H8.90012H8.90103H8.90193H8.90283H8.90374H8.90464H8.90555H8.90645H8.90736H8.90826H8.90917H8.91007H8.91098H8.91188H8.91279H8.91369H8.9146H8.9155H8.91641H8.91732H8.91822H8.91913H8.92003H8.92094H8.92185H8.92275H8.92366H8.92457H8.92547H8.92638H8.92729H8.9282H8.9291H8.93001H8.93092H8.93183H8.93274H8.93364H8.93455H8.93546H8.93637H8.93728H8.93819H8.93909H8.94H8.94091H8.94182H8.94273H8.94364H8.94455H8.94546H8.94637H8.94728H8.94819H8.9491H8.95001H8.95092H8.95183H8.95274H8.95365H8.95456H8.95547H8.95638H8.95729H8.9582H8.95911H8.96002H8.96093H8.96184H8.96275H8.96367H8.96458H8.96549H8.9664H8.96731H8.96822H8.96914H8.97005H8.97096H8.97187H8.97278H8.9737H8.97461H8.97552H8.97643H8.97735H8.97826H8.97917H8.98008H8.981H8.98191H8.98282H8.98374H8.98465H8.98556H8.98648H8.98739H8.9883H8.98922H8.99013H8.99104H8.99196H8.99287H8.99379H8.9947H8.99561H8.99653H8.99744H8.99836H8.99927H9.00019H9.0011H9.00201H9.00293H9.00384H9.00476H9.00567H9.00659H9.0075H9.00842H9.00933H9.01025H9.01116H9.01208H9.01299H9.01391H9.01482H9.01574H9.01665H9.01757H9.01849H9.0194H9.02032H9.02123H9.02215H9.02306H9.02398H9.0249H9.02581H9.02673H9.02764H9.02856H9.02948H9.03039H9.03131H9.03223H9.03314H9.03406H9.03497H9.03589H9.03681H9.03772H9.03864H9.03956H9.04047H9.04139H9.04231H9.04322H9.04414H9.04506H9.04598H9.04689H9.04781H9.04873H9.04964H9.05056H9.05148H9.05239H9.05331H9.05423H9.05515H9.05606H9.05698H9.0579H9.05882H9.05973H9.06065H9.06157H9.06248H9.0634H9.06432H9.06524H9.06615H9.06707H9.06799H9.06891H9.06983H9.07074H9.07166H9.07258H9.0735H9.07441H9.07533H9.07625H9.07717H9.07808H9.079H9.07992H9.08084H9.08176H9.08267H9.08359H9.08451H9.08543H9.08635H9.08726H9.08818H9.0891H9.09002H9.09094H9.09185H9.09277H9.09369H9.09461H9.09552H9.09644H9.09736H9.09828H9.0992H9.10011H9.10103H9.10195H9.10287H9.10379H9.1047H9.10562H9.10654H9.10746H9.10838H9.10929H9.11021H9.11113H9.11205H9.11297H9.11388H9.1148H9.11572H9.11664H9.11756H9.11847H9.11939H9.12031H9.12123H9.12214H9.12306H9.12398H9.1249H9.12582H9.12673H9.12765H9.12857H9.12949H9.1304H9.13132H9.13224H9.13316H9.13407H9.13499H9.13591H9.13683H9.13774H9.13866H9.13958H9.1405H9.14141H9.14233H9.14325H9.14417H9.14508H9.146H9.14692H9.14784H9.14875H9.14967H9.15059H9.1515H9.15242H9.15334H9.15425H9.15517H9.15609H9.15701H9.15792H9.15884H9.15976H9.16067H9.16159H9.16251H9.16342H9.16434H9.16526H9.16617H9.16709H9.168H9.16892H9.16984H9.17075H9.17167H9.17259H9.1735H9.17442H9.17533H9.17625H9.17717H9.17808H9.179H9.17991H9.18083H9.18174H9.18266H9.18358H9.18449H9.18541H9.18632H9.18724H9.18815H9.18907H9.18998H9.1909H9.19181H9.19273H9.19364H9.19456H9.19547H9.19639H9.1973H9.19822H9.19913H9.20004H9.20096H9.20187H9.20279H9.2037H9.20462H9.20553H9.20644H9.20736H9.20827H9.20919H9.2101H9.21101H9.21193H9.21284H9.21375H9.21467H9.21558H9.21649H9.21741H9.21832H9.21923H9.22015H9.22106H9.22197H9.22288H9.2238H9.22471H9.22562H9.22653H9.22745H9.22836H9.22927H9.23018H9.23109H9.23201H9.23292H9.23383H9.23474H9.23565H9.23656H9.23747H9.23839H9.2393H9.24021H9.24112H9.24203H9.24294H9.24385H9.24476H9.24567H9.24658H9.24749H9.2484H9.24931H9.25022H9.25113H9.25204H9.25295H9.25386H9.25477H9.25568H9.25659H9.2575H9.25841H9.25932H9.26023H9.26114H9.26204H9.26295H9.26386H9.26477H9.26568H9.26659H9.26749H9.2684H9.26931H9.27022H9.27113H9.27203H9.27294H9.27385H9.27475H9.27566H9.27657H9.27748H9.27838H9.27929H9.28019H9.2811H9.28201H9.28291H9.28382H9.28473H9.28563H9.28654H9.28744H9.28835H9.28925H9.29016H9.29106H9.29197H9.29287H9.29378H9.29468H9.29559H9.29649H9.29739H9.2983H9.2992H9.30011H9.30101H9.30191H9.30282H9.30372H9.30462H9.30553H9.30643H9.30733H9.30823H9.30914H9.31004H9.31094H9.31184H9.31274H9.31365H9.31455H9.31545H9.31635H9.31725H9.31815H9.31905H9.31995H9.32086H9.32176H9.32266H9.32356H9.32446H9.32536H9.32626H9.32716H9.32805H9.32895H9.32985H9.33075H9.33165H9.33255H9.33313C10.6138 1.83499 11.8416 2.34492 12.7466 3.2511C13.6517 4.15735 14.1601 5.38581 14.1601 6.66665V6.66754V6.66844V6.66934V6.67024V6.67114V6.67204V6.67294V6.67384V6.67474V6.67564V6.67654V6.67744V6.67834V6.67924V6.68014V6.68104V6.68194V6.68284V6.68374V6.68464V6.68555V6.68645V6.68735V6.68825V6.68915V6.69006V6.69096V6.69186V6.69276V6.69367V6.69457V6.69547V6.69637V6.69728V6.69818V6.69908V6.69999V6.70089V6.7018V6.7027V6.7036V6.70451V6.70541V6.70632V6.70722V6.70813V6.70903V6.70994V6.71084V6.71175V6.71265V6.71356V6.71446V6.71537V6.71627V6.71718V6.71809V6.71899V6.7199V6.72081V6.72171V6.72262V6.72353V6.72443V6.72534V6.72625V6.72715V6.72806V6.72897V6.72988V6.73078V6.73169V6.7326V6.73351V6.73442V6.73532V6.73623V6.73714V6.73805V6.73896V6.73987V6.74078V6.74169V6.74259V6.7435V6.74441V6.74532V6.74623V6.74714V6.74805V6.74896V6.74987V6.75078V6.75169V6.7526V6.75351V6.75442V6.75533V6.75624V6.75715V6.75806V6.75898V6.75989V6.7608V6.76171V6.76262V6.76353V6.76444V6.76535V6.76627V6.76718V6.76809V6.769V6.76991V6.77082V6.77174V6.77265V6.77356V6.77447V6.77539V6.7763V6.77721V6.77812V6.77904V6.77995V6.78086V6.78177V6.78269V6.7836V6.78451V6.78543V6.78634V6.78725V6.78817V6.78908V6.79V6.79091V6.79182V6.79274V6.79365V6.79456V6.79548V6.79639V6.79731V6.79822V6.79914V6.80005V6.80096V6.80188V6.80279V6.80371V6.80462V6.80554V6.80645V6.80737V6.80828V6.8092V6.81011V6.81103V6.81194V6.81286V6.81377V6.81469V6.8156V6.81652V6.81743V6.81835V6.81927V6.82018V6.8211V6.82201V6.82293V6.82384V6.82476V6.82568V6.82659V6.82751V6.82843V6.82934V6.83026V6.83117V6.83209V6.83301V6.83392V6.83484V6.83576V6.83667V6.83759V6.83851V6.83942V6.84034V6.84126V6.84217V6.84309V6.84401V6.84492V6.84584V6.84676V6.84767V6.84859V6.84951V6.85042V6.85134V6.85226V6.85318V6.85409V6.85501V6.85593V6.85685V6.85776V6.85868V6.8596V6.86052V6.86143V6.86235V6.86327V6.86418V6.8651V6.86602V6.86694V6.86786V6.86877V6.86969V6.87061V6.87153V6.87244V6.87336V6.87428V6.8752V6.87611V6.87703V6.87795V6.87887V6.87979V6.8807V6.88162V6.88254V6.88346V6.88437V6.88529V6.88621V6.88713V6.88805V6.88896V6.88988V6.8908V6.89172V6.89264V6.89355V6.89447V6.89539V6.89631V6.89723V6.89814V6.89906V6.89998V6.9009V6.90182V6.90273V6.90365V6.90457V6.90549V6.90641V6.90732V6.90824V6.90916V6.91008V6.911V6.91191V6.91283V6.91375V6.91467V6.91558V6.9165V6.91742V6.91834V6.91926V6.92017V6.92109V6.92201V6.92293V6.92385V6.92476V6.92568V6.9266V6.92752V6.92843V6.92935V6.93027V6.93119V6.9321V6.93302V6.93394V6.93486V6.93577V6.93669V6.93761V6.93853V6.93944V6.94036V6.94128V6.9422V6.94311V6.94403V6.94495V6.94587V6.94678V6.9477V6.94862V6.94953V6.95045V6.95137V6.95229V6.9532V6.95412V6.95504V6.95595V6.95687V6.95779V6.9587V6.95962V6.96054V6.96145V6.96237V6.96329V6.9642V6.96512V6.96604V6.96695V6.96787V6.96879V6.9697V6.97062V6.97153V6.97245V6.97337V6.97428V6.9752V6.97611V6.97703V6.97795V6.97886V6.97978V6.98069V6.98161V6.98252V6.98344V6.98436V6.98527V6.98619V6.9871V6.98802V6.98893V6.98985V6.99076V6.99168V6.99259V6.99351V6.99442V6.99534V6.99625V6.99717V6.99808V6.999V6.99991V7.00082V7.00174V7.00265V7.00357V7.00448V7.00539V7.00631V7.00722V7.00814V7.00905V7.00996V7.01088V7.01179V7.0127V7.01362V7.01453V7.01545V7.01636V7.01727V7.01818V7.0191V7.02001V7.02092V7.02184V7.02275V7.02366V7.02457V7.02549V7.0264V7.02731V7.02822V7.02913V7.03005V7.03096V7.03187V7.03278V7.03369V7.03461V7.03552V7.03643V7.03734V7.03825V7.03916V7.04007V7.04098V7.04189V7.04281V7.04372V7.04463V7.04554V7.04645V7.04736V7.04827V7.04918V7.05009V7.051V7.05191V7.05282V7.05373V7.05464V7.05555V7.05646V7.05736V7.05827V7.05918V7.06009V7.061V7.06191V7.06282V7.06373V7.06463V7.06554V7.06645V7.06736V7.06827V7.06917V7.07008V7.07099V7.0719V7.0728V7.07371V7.07462V7.07553V7.07643V7.07734V7.07825V7.07915V7.08006V7.08097V7.08187V7.08278V7.08368V7.08459V7.0855V7.0864V7.08731V7.08821V7.08912V7.09002V7.09093V7.09183V7.09274V7.09364V7.09455V7.09545V7.09636V7.09726V7.09816V7.09907V7.09997V7.10087V7.10178V7.10268V7.10323C14.1536 7.13905 14.1355 7.1719 14.1083 7.19659C14.0775 7.22467 14.0372 7.24015 13.9955 7.23998H13.9934H13.969C13.9306 7.23326 13.8956 7.21324 13.8703 7.1832C13.8419 7.14946 13.828 7.10582 13.8317 7.06185L13.8334 7.04095V7.01998V7.01928V7.01857V7.01787V7.01717V7.01647V7.01576V7.01506V7.01436V7.01366V7.01296V7.01225V7.01155V7.01085V7.01015V7.00945V7.00875V7.00805V7.00735V7.00665V7.00595V7.00525V7.00455V7.00385V7.00315V7.00245V7.00175V7.00105V7.00035V6.99965V6.99895V6.99825V6.99755V6.99686V6.99616V6.99546V6.99476V6.99406V6.99337V6.99267V6.99197V6.99127V6.99058V6.98988V6.98918V6.98848V6.98779V6.98709V6.98639V6.9857V6.985V6.98431V6.98361V6.98291V6.98222V6.98152V6.98083V6.98013V6.97944V6.97874V6.97804V6.97735V6.97666V6.97596V6.97527V6.97457V6.97388V6.97318V6.97249V6.97179V6.9711V6.97041V6.96971V6.96902V6.96833V6.96763V6.96694V6.96625V6.96555V6.96486V6.96417V6.96347V6.96278V6.96209V6.9614V6.9607V6.96001V6.95932V6.95863V6.95794V6.95724V6.95655V6.95586V6.95517V6.95448V6.95379V6.95309V6.9524V6.95171V6.95102V6.95033V6.94964V6.94895V6.94826V6.94757V6.94688V6.94619V6.9455V6.94481V6.94412V6.94343V6.94274V6.94205V6.94136V6.94067V6.93998V6.93929V6.9386V6.93791V6.93722V6.93653V6.93584V6.93515V6.93446V6.93378V6.93309V6.9324V6.93171V6.93102V6.93033V6.92964V6.92896V6.92827V6.92758V6.92689V6.9262V6.92552V6.92483V6.92414V6.92345V6.92276V6.92208V6.92139V6.9207V6.92001V6.91933V6.91864V6.91795V6.91727V6.91658V6.91589V6.91521V6.91452V6.91383V6.91315V6.91246V6.91177V6.91109V6.9104V6.90971V6.90903V6.90834V6.90765V6.90697V6.90628V6.90559V6.90491V6.90422V6.90354V6.90285V6.90216V6.90148V6.90079V6.90011V6.89942V6.89874V6.89805V6.89737V6.89668V6.896V6.89531V6.89462V6.89394V6.89325V6.89257V6.89188V6.8912V6.89051V6.88983V6.88914V6.88846V6.88777V6.88709V6.8864V6.88572V6.88503V6.88435V6.88367V6.88298V6.8823V6.88161V6.88093V6.88024V6.87956V6.87887V6.87819V6.8775V6.87682V6.87614V6.87545V6.87477V6.87408V6.8734V6.87272V6.87203V6.87135V6.87066V6.86998V6.8693V6.86861V6.86793V6.86724V6.86656V6.86588V6.86519V6.86451V6.86382V6.86314V6.86246V6.86177V6.86109V6.8604V6.85972V6.85904V6.85835V6.85767V6.85699V6.8563V6.85562V6.85493V6.85425V6.85357V6.85288V6.8522V6.85152V6.85083V6.85015V6.84947V6.84878V6.8481V6.84741V6.84673V6.84605V6.84536V6.84468V6.844V6.84331V6.84263V6.84195V6.84126V6.84058V6.83989V6.83921V6.83853V6.83784V6.83716V6.83648V6.83579V6.83511V6.83443V6.83374V6.83306V6.83238V6.83169V6.83101V6.83032V6.82964V6.82896V6.82827V6.82759V6.82691V6.82622V6.82554V6.82485V6.82417V6.82349V6.8228V6.82212V6.82143V6.82075V6.82007V6.81938V6.8187V6.81802V6.81733V6.81665V6.81596V6.81528V6.81459V6.81391V6.81323V6.81254V6.81186V6.81117V6.81049V6.80981V6.80912V6.80844V6.80775V6.80707V6.80638V6.8057V6.80501V6.80433V6.80365V6.80296V6.80228V6.80159V6.80091V6.80022V6.79954V6.79885V6.79817V6.79748V6.7968V6.79611V6.79543V6.79474V6.79406V6.79337V6.79269V6.792V6.79132V6.79063V6.78995V6.78926V6.78857V6.78789V6.7872V6.78652V6.78583V6.78515V6.78446V6.78377V6.78309V6.7824V6.78172V6.78103V6.78034V6.77966V6.77897V6.77829V6.7776V6.77691V6.77623V6.77554V6.77485V6.77417V6.77348V6.77279V6.77211V6.77142V6.77073V6.77005V6.76936V6.76867V6.76799V6.7673V6.76661V6.76592V6.76524V6.76455V6.76386V6.76317V6.76249V6.7618V6.76111V6.76042V6.75973V6.75905V6.75836V6.75767V6.75698V6.75629V6.7556V6.75492V6.75423V6.75354V6.75285V6.75216V6.75147V6.75078V6.75009V6.74941V6.74872V6.74803V6.74734V6.74665V6.74596V6.74527V6.74458V6.74389V6.7432V6.74251V6.74182V6.74113V6.74044V6.73975V6.73906V6.73837V6.73768V6.73699V6.7363V6.7356V6.73491V6.73422V6.73353V6.73284V6.73215V6.73146V6.73077V6.73007V6.72938V6.72869V6.728V6.72731V6.72661V6.72592V6.72523V6.72454V6.72384V6.72315V6.72246V6.72177V6.72107V6.72038V6.71969V6.71899V6.7183V6.71761V6.71691V6.71622V6.71553V6.71483V6.71414V6.71344V6.71275V6.71205V6.71136V6.71067V6.70997V6.70928V6.70858V6.70789V6.70719V6.7065V6.7058V6.7051V6.70441V6.70371V6.70302V6.70232V6.70162V6.70093V6.70023V6.69953V6.69884V6.69814V6.69744V6.69675V6.69605V6.69535V6.69466V6.69396V6.69326V6.69256V6.69186V6.69117V6.69047V6.68977V6.68907V6.68837V6.68767V6.68698V6.68628V6.68558V6.68488V6.68418V6.68348V6.68278V6.68208V6.68138V6.68068V6.67998V6.67928V6.67858V6.67788V6.67718V6.67648V6.67577V6.67507V6.67437V6.67367V6.67297V6.67227V6.67156V6.67086V6.67016V6.66946V6.66876V6.66805V6.66735V6.66665C13.8334 5.47317 13.3593 4.32858 12.5154 3.48467C11.6715 2.64075 10.5269 2.16665 9.33345 2.16665H8.98011ZM11.2156 6.7845C11.1843 6.75324 11.1668 6.71085 11.1668 6.66665C11.1668 6.18042 10.9736 5.7141 10.6298 5.37028C10.286 5.02647 9.81968 4.83331 9.33345 4.83331C9.28925 4.83331 9.24685 4.81575 9.2156 4.7845C9.18434 4.75324 9.16678 4.71085 9.16678 4.66665C9.16678 4.62244 9.18434 4.58005 9.2156 4.5488C9.24685 4.51754 9.28925 4.49998 9.33345 4.49998C9.90808 4.49998 10.4592 4.72825 10.8655 5.13458C11.2718 5.54091 11.5001 6.09201 11.5001 6.66665C11.5001 6.71085 11.4826 6.75324 11.4513 6.7845C11.42 6.81575 11.3777 6.83331 11.3334 6.83331C11.2892 6.83331 11.2469 6.81575 11.2156 6.7845Z" fill="white" stroke="white"/>
</g>
</svg>
